<svg xmlns="http://www.w3.org/2000/svg" viewBox="0 0 24 24"><path fill="#98c1d9" d="M23 15v3c0 .5-.36.88-.83.97l-3.2-3.2c.03-.09.03-.18.03-.27a2.5 2.5 0 0 0-2.5-2.5c-.09 0-.18 0-.27.03L10.2 7h.8V5.73A2 2 0 0 1 12 2a2 2 0 0 1 1 3.73V7h1a7 7 0 0 1 7 7h1a1 1 0 0 1 1 1m-.89 6.46-1.27 1.27-.95-.95c-.27.14-.57.22-.89.22H5a2 2 0 0 1-2-2v-1H2a1 1 0 0 1-1-1v-3a1 1 0 0 1 1-1h1a7.02 7.02 0 0 1 3.22-5.89L1.11 3l1.28-1.27 19.72 19.73M10 15.5a2.5 2.5 0 1 0-5 0 2.5 2.5 0 0 0 5 0m6.07 2.46-2.03-2.03c.19 1.04 1 1.84 2.03 2.03Z"/></svg>